<svg width="163" height="160" viewBox="0 0 163 160" fill="none" xmlns="http://www.w3.org/2000/svg">
<path fill-rule="evenodd" clip-rule="evenodd" d="M144.7 103.643L135.6 112.712C129.1 119.19 118.05 119.19 111.55 112.712L87.5002 88.7444C84.9002 86.8011 82.9502 84.8578 80.3502 82.9145L79.7002 82.2667C65.4002 67.3679 50.4502 66.7201 34.8502 79.6756C34.8502 80.3234 34.8502 80.3234 34.8502 80.9711C34.8502 84.21 32.2502 86.8011 29.0002 86.8011C25.7502 86.8011 23.1502 84.21 23.1502 80.9711C23.1502 77.0845 27.0502 73.8456 30.9502 75.7889C42.6502 66.0723 53.7002 62.8335 64.7502 66.7201L49.8002 50.5258C43.9502 44.6958 34.2002 44.6958 28.3502 50.5258L6.9002 71.9023C1.0502 77.7323 1.0502 87.4489 6.9002 93.2788L18.6002 104.939C25.1002 111.416 36.1502 111.416 42.6502 104.939L51.1002 95.8699L110.25 155.465C116.1 161.295 125.2 161.295 131.05 155.465L152.5 134.736C158.35 128.906 158.35 119.19 152.5 113.36L144.7 103.643Z" fill="white"/>
<path fill-rule="evenodd" clip-rule="evenodd" d="M17.3006 56.356L26.4006 47.2872C32.9006 40.8095 43.9506 40.8095 50.4506 47.2872L74.5006 71.2548C77.7506 73.1981 80.3506 75.1414 83.6006 78.3803L84.2506 79.0281C92.0506 86.8014 99.2006 90.688 107.001 90.688C113.501 90.688 120.651 87.4491 127.801 80.3236C127.801 77.0848 130.401 74.4937 133.651 74.4937C136.901 74.4937 139.501 77.0848 139.501 80.3236C139.501 83.5625 136.901 86.1536 133.651 86.1536C132.351 86.1536 131.701 86.1536 131.051 85.5058C123.251 92.6313 115.451 96.518 107.651 96.518C104.401 96.518 101.151 95.8702 98.5506 94.5746L113.501 109.473C119.351 115.303 129.101 115.303 134.951 109.473L156.401 88.0969C162.251 82.267 162.251 72.5504 156.401 66.7204L144.701 55.0605C138.201 48.5827 127.151 48.5827 120.651 55.0605L112.201 64.1293L59.5506 13.603L50.4506 4.53416C44.6006 -1.2958 35.5006 -1.2958 29.6506 3.88639L7.55059 25.2629C1.70059 31.0929 1.70059 40.8095 7.55059 46.6394L17.3006 56.356Z" fill="white"/>
</svg>
